<svg width="126" height="118" viewBox="0 0 126 118" fill="none" xmlns="http://www.w3.org/2000/svg">
<path d="M90.677 51.3229H85.1292V59.2541H78.3125V65.5719H85.1292V73.5028H90.677V65.5719H97.7768V59.2541H90.677V51.3229Z" fill="black"/>
<path d="M22.2045 92.4572C28.2243 92.4572 33.1034 98.0171 33.1034 104.876C33.1034 111.737 28.2246 117.296 22.2045 117.296C16.1859 117.296 11.3057 111.737 11.3057 104.876C11.3057 98.0171 16.1859 92.4572 22.2045 92.4572Z" fill="black"/>
<path d="M98.9444 92.4572C104.964 92.4572 109.843 98.0171 109.843 104.876C109.843 111.737 104.964 117.296 98.9444 117.296C92.9264 117.296 88.0449 111.737 88.0449 104.876C88.0449 98.0171 92.9261 92.4572 98.9444 92.4572Z" fill="black"/>
<path d="M33.6005 9.7281C32.9959 9.4174 32.2862 9.72322 32.0129 10.4094C31.7384 11.0956 32.0074 11.9086 32.6108 12.2172L42.7066 17.4353C42.8683 17.5165 43.0362 17.5583 43.2015 17.5583C43.6585 17.5583 44.0938 17.2601 44.2961 16.754C44.57 16.0678 44.3028 15.2556 43.6982 14.9466L33.6005 9.7281Z" fill="black"/>
<path d="M50.1916 12.8953C50.482 12.8953 50.7727 12.7779 51.0026 12.5351C51.4919 12.0234 51.5237 11.1624 51.0775 10.604L43.5856 1.29035C43.1393 0.736172 42.3791 0.692283 41.8891 1.20849C41.3988 1.72017 41.3692 2.58121 41.8154 3.13887L49.3058 12.4522C49.5436 12.7458 49.8682 12.8953 50.1916 12.8953Z" fill="black"/>
<path d="M64.0802 1.2058C63.5878 0.692029 62.8331 0.73348 62.384 1.28731L54.8949 10.602C54.4483 11.1597 54.4801 12.0239 54.9695 12.5324C55.199 12.7752 55.49 12.8926 55.7804 12.8926C56.1038 12.8926 56.4284 12.7431 56.6659 12.4495L64.1548 3.13722C64.6044 2.57852 64.5714 1.71748 64.0802 1.2058Z" fill="black"/>
<path d="M60.5743 17.5583C60.7396 17.5583 60.9087 17.5165 61.0692 17.4354L71.1656 12.2172C71.7696 11.9086 72.0368 11.0956 71.7648 10.4094C71.489 9.72325 70.7808 9.41778 70.1759 9.72813L60.0776 14.9466C59.473 15.2559 59.2073 16.0682 59.4803 16.7541C59.6839 17.2602 60.1188 17.5583 60.5743 17.5583Z" fill="black"/>
<path d="M115.617 24.0133H59.3108C58.2123 20.271 55.1443 17.5551 51.4879 17.5551C47.8333 17.5551 44.7648 20.2706 43.6656 24.0133C43.6656 24.0133 41.8637 24.0133 39.6387 24.0133C37.4147 24.0133 35.6131 27.5742 35.6131 31.9626V39.914C35.6131 39.914 33.5135 39.914 30.9238 39.914C28.3342 39.914 23.4249 43.616 19.9547 48.1838L7.23251 64.9334C3.76166 69.5023 0.949219 78.0981 0.949219 84.1397V89.0893C0.949219 95.1305 2.93911 100.027 5.39392 100.027H9.83802C11.5027 93.9842 16.46 89.5975 22.3163 89.5975C28.171 89.5975 33.1259 93.9845 34.7936 100.027H35.6149H42.155H86.576C88.2447 93.9842 93.2008 89.5975 99.057 89.5975C104.912 89.5975 109.868 93.9845 111.535 100.027C111.535 100.027 114.598 100.027 118.375 100.027C122.157 100.027 125.218 95.1301 125.218 89.0893V34.946C125.215 28.911 120.917 24.0133 115.617 24.0133ZM35.9836 62.7923C35.9836 65.8087 33.8338 68.2612 31.1843 68.2612H20.3866C17.7371 68.2612 17.0658 66.4841 18.8916 64.2928L26.3832 55.2895C28.2065 53.0972 31.0956 51.3225 32.8355 51.3225C34.5753 51.3225 35.9836 53.7729 35.9836 56.7914V62.7923ZM104.958 65.2549H104.963L88.3009 83.8826L71.131 65.2549H71.1359C68.523 62.7226 66.8547 58.9552 66.8547 54.7385C66.8547 47.1173 72.2763 40.9395 78.9643 40.9395C82.5831 40.9395 85.8241 42.7605 88.0423 45.6324C90.2645 42.7605 93.5031 40.9395 97.1228 40.9395C103.814 40.9395 109.231 47.1169 109.231 54.7385C109.234 58.9583 107.568 62.7254 104.958 65.2549Z" fill="black"/>
</svg>
