<svg width="126" height="118" viewBox="0 0 126 118" fill="none" xmlns="http://www.w3.org/2000/svg">
<path d="M90.5843 51.3597H85.0364V59.2909H78.2197V65.6087H85.0364V73.5395H90.5843V65.6087H97.684V59.2909H90.5843V51.3597Z" fill="black"/>
<path d="M22.1118 92.494C28.1316 92.494 33.0106 98.0538 33.0106 104.913C33.0106 111.773 28.1319 117.333 22.1118 117.333C16.0932 117.333 11.2129 111.773 11.2129 104.913C11.2129 98.0538 16.0932 92.494 22.1118 92.494Z" fill="black"/>
<path d="M98.8516 92.494C104.871 92.494 109.75 98.0538 109.75 104.913C109.75 111.773 104.871 117.333 98.8516 117.333C92.8336 117.333 87.9521 111.773 87.9521 104.913C87.9521 98.0538 92.8333 92.494 98.8516 92.494Z" fill="black"/>
<path d="M33.5077 9.76487C32.9031 9.45417 32.1934 9.75999 31.9201 10.4462C31.6456 11.1324 31.9146 11.9453 32.518 12.254L42.6139 17.4721C42.7756 17.5533 42.9434 17.5951 43.1088 17.5951C43.5657 17.5951 44.001 17.2969 44.2033 16.7908C44.4772 16.1046 44.2101 15.2923 43.6055 14.9834L33.5077 9.76487Z" fill="black"/>
<path d="M50.0989 12.932C50.3893 12.932 50.6799 12.8147 50.9098 12.5719C51.3992 12.0602 51.431 11.1991 50.9847 10.6408L43.4928 1.32711C43.0465 0.772939 42.2863 0.72905 41.7963 1.24526C41.306 1.75694 41.2764 2.61798 41.7227 3.17564L49.213 12.489C49.4509 12.7826 49.7755 12.932 50.0989 12.932Z" fill="black"/>
<path d="M63.9874 1.24257C63.495 0.728796 62.7403 0.770247 62.2913 1.32407L54.8021 10.6388C54.3555 11.1965 54.3873 12.0606 54.8767 12.5692C55.1063 12.812 55.3973 12.9293 55.6876 12.9293C56.011 12.9293 56.3357 12.7799 56.5732 12.4863L64.062 3.17399C64.5116 2.61529 64.4786 1.75425 63.9874 1.24257Z" fill="black"/>
<path d="M60.4815 17.5951C60.6469 17.5951 60.8159 17.5533 60.9764 17.4721L71.0729 12.254C71.6769 11.9454 71.944 11.1324 71.672 10.4462C71.3963 9.76002 70.688 9.45454 70.0831 9.7649L59.9848 14.9834C59.3802 15.2927 59.1146 16.105 59.3875 16.7908C59.5911 17.2969 60.0261 17.5951 60.4815 17.5951Z" fill="black"/>
<path d="M115.524 24.0501H59.2181C58.1195 20.3077 55.0515 17.5919 51.3951 17.5919C47.7406 17.5919 44.672 20.3074 43.5728 24.0501C43.5728 24.0501 41.7709 24.0501 39.5459 24.0501C37.3219 24.0501 35.5203 27.6109 35.5203 31.9994V39.9508C35.5203 39.9508 33.4207 39.9508 30.8311 39.9508C28.2415 39.9508 23.3321 43.6527 19.8619 48.2206L7.13974 64.9702C3.66889 69.539 0.856445 78.1348 0.856445 84.1764V89.126C0.856445 95.1673 2.84634 100.064 5.30115 100.064H9.74524C11.4099 94.0209 16.3672 89.6342 22.2235 89.6342C28.0782 89.6342 33.0331 94.0213 34.7008 100.064H35.5221H42.0622H86.4833C88.1519 94.0209 93.108 89.6342 98.9643 89.6342C104.819 89.6342 109.775 94.0213 111.443 100.064C111.443 100.064 114.505 100.064 118.283 100.064C122.064 100.064 125.125 95.1669 125.125 89.126V34.9827C125.123 28.9478 120.824 24.0501 115.524 24.0501ZM35.8908 62.829C35.8908 65.8455 33.741 68.298 31.0915 68.298H20.2938C17.6443 68.298 16.973 66.5209 18.7988 64.3296L26.2904 55.3263C28.1137 53.134 31.0029 51.3593 32.7427 51.3593C34.4826 51.3593 35.8908 53.8097 35.8908 56.8282V62.829ZM104.865 65.2917H104.87L88.2081 83.9194L71.0382 65.2917H71.0431C68.4303 62.7594 66.7619 58.992 66.7619 54.7752C66.7619 47.154 72.1835 40.9762 78.8715 40.9762C82.4903 40.9762 85.7313 42.7973 87.9495 45.6691C90.1717 42.7973 93.4103 40.9762 97.03 40.9762C103.721 40.9762 109.138 47.1537 109.138 54.7752C109.141 58.9951 107.475 62.7622 104.865 65.2917Z" fill="black"/>
</svg>
