<svg width="134" height="134" viewBox="0 0 134 134" fill="none" xmlns="http://www.w3.org/2000/svg">
<circle cx="67" cy="67" r="63.5069" stroke="#1E2251" stroke-width="5.0137"/>
<path d="M80.3266 39.4061C80.3266 46.317 74.7169 51.9177 67.7998 51.9177C60.8904 51.9177 55.2898 46.3155 55.2898 39.4061C55.2898 32.4967 60.8904 26.8945 67.7998 26.8945C74.7169 26.8945 80.3266 32.4967 80.3266 39.4061Z" fill="#1E2251"/>
<path d="M67.8206 9C62.0304 9 53.9426 11.3082 48.0841 17.1666L55.0421 29.8435C56.5623 27.9084 58.5028 26.3443 60.7166 25.2697C62.9305 24.1951 65.3597 23.6381 67.8206 23.6408C73.0663 23.6408 77.7343 26.1189 80.7083 29.9724L87.5328 16.8755C82.4629 11.3355 73.3712 9 67.8206 9ZM72.9769 18.3086H69.7375V21.5449H65.846V18.3086H62.6067V14.4186H65.846V11.1687H69.7375V14.4186H72.9769V18.3086ZM51.3599 74.4044H54.5644L49.9874 90.0917H85.7493L81.1936 74.4044H84.4011L88.9856 90.0917H99.509L92.3266 66.3242C91.2043 62.4009 86.2846 55.493 77.795 55.2837L58.2769 55.267C49.5946 55.3095 44.5718 62.3524 43.4359 66.3227L36.114 90.0902H46.786L51.3599 74.4044ZM21 95.0933H114.617V104H21V95.0933Z" fill="#1E2251"/>
</svg>
