<svg width="134" height="134" viewBox="0 0 134 134" fill="none" xmlns="http://www.w3.org/2000/svg">
<circle cx="67" cy="67" r="63.5069" stroke="#1E2251" stroke-width="5.0137"/>
<path fill-rule="evenodd" clip-rule="evenodd" d="M43.9208 21.9873C43.9208 20.8258 55.9233 12.6851 67.8408 12.6851C79.7583 12.6851 91.7608 20.8258 91.7608 21.9873C91.7608 26.1334 91.3196 28.5892 90.9475 29.9261C90.7004 30.8031 89.8791 31.2895 88.9675 31.2895H46.7141C45.8025 31.2895 44.9813 30.8031 44.7341 29.9261C44.362 28.5892 43.9208 26.1334 43.9208 21.9873ZM63.8542 20.6584C63.1493 20.6584 62.4733 20.9384 61.9748 21.4368C61.4764 21.9353 61.1964 22.6113 61.1964 23.3162C61.1964 24.0211 61.4764 24.6971 61.9748 25.1955C62.4733 25.6939 63.1493 25.974 63.8542 25.974H71.8275C72.5324 25.974 73.2084 25.6939 73.7068 25.1955C74.2053 24.6971 74.4853 24.0211 74.4853 23.3162C74.4853 22.6113 74.2053 21.9353 73.7068 21.4368C73.2084 20.9384 72.5324 20.6584 71.8275 20.6584H63.8542ZM46.6796 47.8156C37.8292 45.0781 40.0617 40.1877 43.4371 36.6051H92.9834C95.6837 40.0549 97.1322 44.7086 88.9702 47.494C89.0588 48.2825 89.1031 49.0825 89.1031 49.894C89.1019 52.773 88.5161 55.6219 87.381 58.2678C86.246 60.9137 84.5854 63.3015 82.5 65.2865C80.4145 67.2715 77.9477 68.8123 75.249 69.8154C72.5503 70.8185 69.676 71.2631 66.8004 71.1222C63.9248 70.9814 61.1077 70.2579 58.52 68.9958C55.9323 67.7337 53.6279 65.9592 51.7465 63.7799C49.865 61.6006 48.4458 59.0618 47.5749 56.3177C46.7039 53.5735 46.3993 50.681 46.6796 47.8156ZM67.1179 49.894C74.1398 49.894 79.5829 49.5219 83.7556 48.8734C83.7769 49.21 83.7875 49.5502 83.7875 49.894C83.7856 52.0222 83.3578 54.1285 82.5291 56.0887C81.7005 58.049 80.4879 59.8236 78.9627 61.3079C77.4376 62.7922 75.6308 63.9562 73.6487 64.7313C71.6667 65.5064 69.5496 65.8769 67.4221 65.821C65.2946 65.7651 63.1999 65.284 61.2613 64.4059C59.3227 63.5278 57.5794 62.2705 56.1343 60.7082C54.6892 59.1459 53.5714 57.3101 52.8468 55.309C52.1223 53.308 51.8056 51.1821 51.9154 49.0568C55.8037 49.5936 60.7871 49.894 67.1179 49.894ZM90.2113 88.6975C87.8077 84.9465 84.4987 81.8606 80.5894 79.7241C76.68 77.5876 72.2959 76.4692 67.8408 76.4717C63.3839 76.4684 58.9978 77.587 55.0869 79.7245C51.176 81.8621 47.8661 84.9497 45.4623 88.7028C44.5682 87.3304 43.1986 86.3365 41.6165 85.9122L36.4817 84.5381C34.7798 84.0818 32.9663 84.3203 31.4401 85.201C29.9139 86.0817 28.8001 87.5325 28.3436 89.2344L26.2811 96.9366C26.0553 97.7795 25.9976 98.6587 26.1115 99.5238C26.2254 100.389 26.5087 101.223 26.945 101.979C27.3813 102.735 27.9623 103.397 28.6546 103.928C29.347 104.459 30.1372 104.849 30.9801 105.075L36.1123 106.451C36.9757 106.683 37.8768 106.738 38.7619 106.612C39.6469 106.487 40.4976 106.185 41.263 105.723C41.2652 106.428 41.5472 107.103 42.0471 107.6C42.547 108.097 43.2239 108.375 43.9288 108.373C44.6337 108.371 45.3089 108.089 45.8058 107.589C46.3027 107.089 46.5807 106.412 46.5786 105.707V103.05C46.5786 102.036 46.6477 101.041 46.7859 100.065L60.617 103.772C61.259 105.147 62.2797 106.309 63.5592 107.124C64.8387 107.938 66.324 108.371 67.8408 108.371C69.3576 108.371 70.8429 107.938 72.1224 107.124C73.402 106.309 74.4226 105.147 75.0647 103.772L88.8957 100.065C89.0322 101.041 89.1013 102.036 89.1031 103.05V105.707C89.0995 106.412 89.3762 107.09 89.8721 107.591C90.368 108.091 91.0426 108.375 91.7475 108.378C92.4524 108.382 93.1298 108.105 93.6308 107.609C94.1317 107.113 94.4151 106.439 94.4186 105.734C95.907 106.627 97.7461 106.938 99.5561 106.451L104.691 105.077C105.534 104.852 106.324 104.462 107.016 103.931C107.709 103.4 108.29 102.737 108.726 101.982C109.162 101.226 109.446 100.392 109.559 99.5265C109.673 98.6613 109.616 97.7822 109.39 96.9393L107.325 89.2371C106.868 87.5352 105.754 86.0843 104.228 85.2036C102.702 84.3229 100.889 84.0845 99.1867 84.5408L94.0518 85.9148C92.4734 86.3377 91.1061 87.3301 90.2113 88.6975ZM48.1812 94.9327C49.6178 91.4613 51.9474 88.4318 54.9335 86.152C57.9195 83.8721 61.4558 82.4231 65.183 81.9521V92.8729C63.9912 93.2941 62.9166 93.9925 62.0478 94.9108C61.179 95.829 60.541 96.9406 60.1864 98.1539L48.1812 94.9327ZM87.5004 94.9327C86.0639 91.4613 83.7343 88.4318 80.7482 86.152C77.7621 83.8721 74.2259 82.4231 70.4986 81.9521V92.8729C72.9012 93.7234 74.7776 95.6901 75.4952 98.1539L87.5004 94.9327ZM67.8408 103.05C68.5457 103.05 69.2217 102.77 69.7202 102.271C70.2186 101.773 70.4986 101.097 70.4986 100.392C70.4986 99.6869 70.2186 99.0108 69.7202 98.5124C69.2217 98.014 68.5457 97.734 67.8408 97.734C67.1359 97.734 66.4599 98.014 65.9615 98.5124C65.4631 99.0108 65.183 99.6869 65.183 100.392C65.183 101.097 65.4631 101.773 65.9615 102.271C66.4599 102.77 67.1359 103.05 67.8408 103.05Z" fill="#1E2251"/>
</svg>
